<?xml version="1.0" standalone="yes"?>
<svg xmlns="http://www.w3.org/2000/svg" width="1055" height="1059">
<path style="fill:#edfffd; stroke:none;" d="M0 0L0 1059L1055 1059L1055 0L0 0z"/>
<path style="fill:#61bb47; stroke:none;" d="M626 48.696C619.284 50.0195 611.915 55.6405 606 59C594.755 65.3867 583.334 71.4698 572 77.6945C529.353 101.116 486.548 124.262 444 147.861C430.692 155.242 417.289 162.447 404 169.86C397.965 173.227 390.789 178.818 384 180.272C376.132 181.956 364.69 176.707 357 174.884L294 159.884C267.671 153.643 241.253 147.681 215 141.127C201.053 137.644 184.404 131.033 170 131.079C149.125 131.146 124.198 142.78 104 148.116C88.6572 152.169 73.2897 156.174 58 160.424C53.2276 161.751 43.8877 162.42 40.6188 166.43C36.5673 171.4 45.0179 184.15 47.2307 189C56.7477 209.861 65.9696 230.924 75.0008 252C93.369 294.867 112.528 337.484 131.694 380C140.83 400.266 147.991 422.894 159.353 442C164.993 451.486 175.239 459.239 183 467C197.758 481.758 210.002 494.724 220.139 513C233.954 537.907 248.027 562.778 261.255 588C264.301 593.806 270.214 610.982 278.015 610.566C286.517 610.114 295.841 605.49 304 603.141C325.42 596.975 346.65 590.125 368 583.72C436.379 563.204 504.621 542.236 573 521.72C598.681 514.015 624.266 505.952 650 498.424C659.571 495.625 675.924 493.712 683.621 487.298C689.674 482.254 693.423 471.785 697.281 465C706.4 448.96 715.665 433.002 724.85 417C746.292 379.647 767.959 342.423 789.281 305C798.28 289.206 810.836 272.976 817.311 256C819.584 250.042 813.733 244.947 809.961 241C799.541 230.098 789.535 218.802 779.015 208C740.769 168.73 702.974 128.11 666.714 87C657.695 76.7742 647.985 67.1129 638.83 57C635.675 53.5143 631.339 47.6437 626 48.696z"/>
<path style="fill:#ed958b; stroke:none;" d="M874 510L874 511L878 511L874 510z"/>
<path style="fill:#ed3725; stroke:none;" d="M878 510L879 511L878 510z"/>
<path style="fill:#ed958b; stroke:none;" d="M879 510L880 511L879 510M867 511L867 512L870 512L867 511z"/>
<path style="fill:#ed3725; stroke:none;" d="M870 511L871 512L870 511z"/>
<path style="fill:#a501c7; stroke:none;" d="M871 511.424C823.659 517.717 776.291 523.91 729 530.576C716.348 532.359 703.669 534.052 691 535.718C685.722 536.412 677.898 535.976 673.329 538.988C666.24 543.662 661.139 557.754 656.8 565C644.073 586.256 631.537 607.638 618.989 629C601.325 659.072 583.543 689.094 565.6 719C560.818 726.971 556.181 735.026 551.4 743C549.546 746.091 546.169 750.166 546.532 754C547.095 759.955 556.049 766.049 560 770C572.328 782.328 589.29 794.884 598.123 810C613.653 836.575 627.435 864.2 642.576 891C647.787 900.225 652.553 915.443 660.529 922.436C665.441 926.741 676.718 927.135 683 928.4C701.011 932.025 718.986 935.79 737 939.4C795.393 951.099 853.602 963.718 912 975.4C927.327 978.466 942.767 981.379 958 984.881C964.276 986.324 974.501 990.346 980.856 988.667C987.546 986.901 988.21 963.986 989.25 958C994.991 924.955 1001.5 892.043 1007.25 859C1011.55 834.313 1016 809.631 1020.61 785C1022.41 775.405 1028.07 760.552 1025.5 751C1023.23 742.567 1015.76 734.362 1011.19 727C999.366 707.928 987.443 688.877 975.308 670C969.666 661.224 960.665 651.013 957.649 641C955.404 633.548 957 623.738 957 616L957 564C957 557.311 959.861 541.741 955.397 536.419C952.351 532.788 945.314 531.766 941 530.333C928.745 526.263 916.393 522.053 904 518.424C893.126 515.24 882.556 509.888 871 511.424z"/>
<path style="fill:#ed958b; stroke:none;" d="M882 511L883 512L882 511M860 512L860 513L863 513L860 512M885 512L886 513L885 512M852 513L852 514L855 514L852 513z"/>
<path style="fill:#ed3725; stroke:none;" d="M855 513L856 514L855 513z"/>
<path style="fill:#ed958b; stroke:none;" d="M888.667 513.333L889.333 513.667L888.667 513.333M845 514L845 515L848 515L845 514M891.667 514.333L892.333 514.667L891.667 514.333M837 515L837 516L841 516L837 515M894.667 515.333L895.333 515.667L894.667 515.333M830 516L830 517L833 517L830 516z"/>
<path style="fill:#ed3725; stroke:none;" d="M833 516L834 517L833 516M897 516L898 517L897 516z"/>
<path style="fill:#ed958b; stroke:none;" d="M898 516L899 517L898 516M823 517L823 518L826 518L823 517z"/>
<path style="fill:#ed3725; stroke:none;" d="M900 517L901 518L900 517z"/>
<path style="fill:#ed958b; stroke:none;" d="M901 517L902 518L901 517M815 518L815 519L818 519L815 518z"/>
<path style="fill:#ed3725; stroke:none;" d="M818 518L819 519L818 518z"/>
<path style="fill:#ed958b; stroke:none;" d="M904 518L905 519L904 518M808 519L808 520L811 520L808 519M907 519L908 520L907 519M800 520L800 521L803 521L800 520z"/>
<path style="fill:#ed3725; stroke:none;" d="M803 520L804 521L803 520z"/>
<path style="fill:#ed958b; stroke:none;" d="M910 520L911 521L910 520M793 521L793 522L796 522L793 521z"/>
<path style="fill:#ed3725; stroke:none;" d="M796 521L797 522L796 521z"/>
<path style="fill:#ed958b; stroke:none;" d="M913 521L914 522L913 521M785 522L785 523L789 523L785 522M916 522L917 523L916 522M778 523L778 524L781 524L778 523z"/>
<path style="fill:#ed3725; stroke:none;" d="M781 523L782 524L781 523z"/>
<path style="fill:#ed958b; stroke:none;" d="M919.667 523.333L920.333 523.667L919.667 523.333M771 524L771 525L774 525L771 524M922.667 524.333L923.333 524.667L922.667 524.333M763 525L763 526L766 526L763 525z"/>
<path style="fill:#ed3725; stroke:none;" d="M766 525L767 526L766 525z"/>
<path style="fill:#ed958b; stroke:none;" d="M925.667 525.333L926.333 525.667L925.667 525.333M756 526L756 527L759 527L756 526z"/>
<path style="fill:#ed3725; stroke:none;" d="M759 526L760 527L759 526M928 526L929 527L928 526z"/>
<path style="fill:#ed958b; stroke:none;" d="M929 526L930 527L929 526M748 527L748 528L752 528L748 527z"/>
<path style="fill:#ed3725; stroke:none;" d="M931 527L932 528L931 527z"/>
<path style="fill:#ed958b; stroke:none;" d="M932 527L933 528L932 527M741 528L741 529L744 529L741 528z"/>
<path style="fill:#ed3725; stroke:none;" d="M744 528L745 529L744 528z"/>
<path style="fill:#ed958b; stroke:none;" d="M935 528L936 529L935 528M734 529L734 530L737 530L734 529M938 529L939 530L938 529M726 530L726 531L729 531L726 530z"/>
<path style="fill:#ed3725; stroke:none;" d="M729 530L730 531L729 530z"/>
<path style="fill:#ed958b; stroke:none;" d="M941 530L942 531L941 530M719 531L719 532L722 532L719 531M944 531L945 532L944 531M711 532L711 533L715 533L711 532M947 532L948 533L947 532M704 533L704 534L707 534L704 533z"/>
<path style="fill:#ed3725; stroke:none;" d="M707 533L708 534L707 533z"/>
<path style="fill:#ed958b; stroke:none;" d="M950.667 533.333L951.333 533.667L950.667 533.333M697 534L697 535L700 535L697 534M953.667 534.333L954.333 534.667L953.667 534.333M689 535L689 536L692 536L689 535z"/>
<path style="fill:#ed3725; stroke:none;" d="M692 535L693 536L692 535z"/>
<path style="fill:#ed958b; stroke:none;" d="M955 535L956 536L955 535M682 536L682 537L685 537L682 536M956 536L957 537L956 536M675 537L675 538L678 538L675 537M671 540L672 541L671 540M669 543L670 544L669 543M668 545L669 546L668 545z"/>
<path style="fill:#ed3725; stroke:none;" d="M667 547L668 548L667 547z"/>
<path style="fill:#ed958b; stroke:none;" d="M666 548L667 549L666 548M665 550L666 551L665 550M664 552L665 553L664 552M663 553L664 554L663 553M662 555L663 556L662 555M661 557L662 558L661 557M659 560L660 561L659 560M658 562L659 563L658 562M656 565L657 566L656 565M655 567L656 568L655 567M653 570L654 571L653 570M652 572L653 573L652 572z"/>
<path style="fill:#ed3725; stroke:none;" d="M651 574L652 575L651 574z"/>
<path style="fill:#ed958b; stroke:none;" d="M650 575L651 576L650 575M649 577L650 578L649 577M648 579L649 580L648 579M647 580L648 581L647 580M646 582L647 583L646 582M645 584L646 585L645 584M643 587L644 588L643 587M642 589L643 590L642 589M640 592L641 593L640 592M639 594L640 595L639 594M637 597L638 598L637 597M636 599L637 600L636 599z"/>
<path style="fill:#ed3725; stroke:none;" d="M635 601L636 602L635 601z"/>
<path style="fill:#ed958b; stroke:none;" d="M634 602L635 603L634 602M166 603L164 606L166 603z"/>
<path style="fill:#ed3725; stroke:none;" d="M167.104 604.137C160.518 606.961 155.483 621.052 151.989 627C139.623 648.052 127.161 669.064 114.6 690C96.6536 719.912 79.0768 750.045 61.2006 780C55.1261 790.179 41.0061 806.208 39.6466 818C39.0886 822.84 44.988 826.987 48 830L75 857C101.325 883.325 115.701 920.782 134 953C139.64 962.931 144.884 979.991 153.61 987.397C157.909 991.046 168.663 989 174 989L229 989L402 989L451 989C457.248 989 467.063 990.858 472.867 988.397C478.695 985.925 479.443 972.449 481 967C487.139 945.516 492.454 923.678 497.873 902C502.717 882.627 508.024 863.373 512.873 844C514.827 836.196 519.706 826.114 518.812 818C518.18 812.261 511.802 807.802 508 804C498.486 794.486 489.514 784.514 480 775C470.902 765.902 459.098 747.364 447 742.742C439.01 739.69 426.499 742 418 742C393.071 742 363.439 746.451 339 741.725C331.363 740.249 323.683 734.081 317 730.281C303.197 722.433 287.894 715.462 275 706.211C264.665 698.797 255.979 687.979 247 679L195 627C188.683 620.683 182.519 614.152 176 608.044C173.717 605.905 170.551 602.658 167.104 604.137z"/>
<path style="fill:#ed958b; stroke:none;" d="M170 603L171 604L170 603M633 604L634 605L633 604M632 606L633 607L632 606M163 607L164 608L163 607M631 607L632 608L631 607M162 609L163 610L162 609M630 609L631 610L630 609M629 611L630 612L629 611M160 612L161 613L160 612M159 614L160 615L159 614M627 614L628 615L627 614M626 616L627 617L626 616M157 617L158 618L157 617M156 619L157 620L156 619M624 619L625 620L624 619M623 621L624 622L623 621M154 622L155 623L154 622M153 624L154 625L153 624M621 624L622 625L621 624M152 626L153 627L152 626M620 626L621 627L620 626M151 627L152 628L151 627z"/>
<path style="fill:#ed3725; stroke:none;" d="M619 628L620 629L619 628z"/>
<path style="fill:#ed958b; stroke:none;" d="M150 629L151 630L150 629M618 629L619 630L618 629M149 631L150 632L149 631M617 631L618 632L617 631M148 632L149 633L148 632M616 633L617 634L616 633M147 634L148 635L147 634M615 634L616 635L615 634M146 636L147 637L146 636M614 636L615 637L614 636M613 638L614 639L613 638M144 639L145 640L144 639M143 641L144 642L143 641M611 641L612 642L611 641M610 643L611 644L610 643M958 643L959 644L958 643M141 644L142 645L141 644z"/>
<path style="fill:#ed3725; stroke:none;" d="M959 645L960 646L959 645z"/>
<path style="fill:#ed958b; stroke:none;" d="M140 646L141 647L140 646M608 646L609 647L608 646M960 646L961 647L960 646M607 648L608 649L607 648M961 648L962 649L961 648M138 649L139 650L138 649M962 649L963 650L962 649M137 651L138 652L137 651M605 651L606 652L605 651M963 651L964 652L963 651M136 653L137 654L136 653M604 653L605 654L604 653M135 654L136 655L135 654M965 654L966 655L965 654z"/>
<path style="fill:#ed3725; stroke:none;" d="M603 655L604 656L603 655z"/>
<path style="fill:#ed958b; stroke:none;" d="M134 656L135 657L134 656M602 656L603 657L602 656M966 656L967 657L966 656M967 657L968 658L967 657M133 658L134 659L133 658M601 658L602 659L601 658M132 659L133 660L132 659M968 659L969 660L968 659M600 660L601 661L600 660M131 661L132 662L131 661M599 661L600 662L599 661M970 662L971 663L970 662M130 663L131 664L130 663M598 663L599 664L598 663z"/>
<path style="fill:#ed3725; stroke:none;" d="M971 664L972 665L971 664z"/>
<path style="fill:#ed958b; stroke:none;" d="M597 665L598 666L597 665M972 665L973 666L972 665M128 666L129 667L128 666M973 667L974 668L973 667M127 668L128 669L127 668M595 668L596 669L595 668M594 670L595 671L594 670M975 670L976 671L975 670M125 671L126 672L125 671M124 673L125 674L124 673M592 673L593 674L592 673M977 673L978 674L977 673M591 675L592 676L591 675M978 675L979 676L978 675M122 676L123 677L122 676M979 676L980 677L979 676M121 678L122 679L121 678M589 678L590 679L589 678M980 678L981 679L980 678M120 680L121 681L120 680M588 680L589 681L588 680M119 681L120 682L119 681M982 681L983 682L982 681z"/>
<path style="fill:#ed3725; stroke:none;" d="M587 682L588 683L587 682z"/>
<path style="fill:#ed958b; stroke:none;" d="M118 683L119 684L118 683M586 683L587 684L586 683z"/>
<path style="fill:#ed3725; stroke:none;" d="M983 683L984 684L983 683z"/>
<path style="fill:#ed958b; stroke:none;" d="M984 684L985 685L984 684M117 685L118 686L117 685M585 685L586 686L585 685M116 686L117 687L116 686M985 686L986 687L985 686M584 687L585 688L584 687M115 688L116 689L115 688M583 688L584 689L583 688M987 689L988 690L987 689M114 690L115 691L114 690M582 690L583 691L582 690M581 692L582 693L581 692M989 692L990 693L989 692M112 693L113 694L112 693M990 694L991 695L990 694M111 695L112 696L111 695M579 695L580 696L579 695M991 695L992 696L991 695M578 697L579 698L578 697M992 697L993 698L992 697M109 698L110 699L109 698M108 700L109 701L108 700M576 700L577 701L576 700M994 700L995 701L994 700M575 702L576 703L575 702z"/>
<path style="fill:#ed3725; stroke:none;" d="M995 702L996 703L995 702z"/>
<path style="fill:#ed958b; stroke:none;" d="M106 703L107 704L106 703M996 703L997 704L996 703z"/>
<path style="fill:#ed3725; stroke:none;" d="M574 704L575 705L574 704z"/>
<path style="fill:#ed958b; stroke:none;" d="M105 705L106 706L105 705M273 705L274 706L273 705M573 705L574 706L573 705M997 705L998 706L997 705M275 706L276 707L275 706M104 707L105 708L104 707M276 707L277 708L276 707M572 707L573 708L572 707M103 708L104 709L103 708M278 708L279 709L278 708M999 708L1000 709L999 708M280 709L281 710L280 709z"/>
<path style="fill:#ed3725; stroke:none;" d="M571 709L572 710L571 709z"/>
<path style="fill:#ed958b; stroke:none;" d="M102 710L103 711L102 710M282 710L283 711L282 710M570 710L571 711L570 710z"/>
<path style="fill:#ed3725; stroke:none;" d="M1000 710L1001 711L1000 710z"/>
<path style="fill:#ed958b; stroke:none;" d="M283 711L284 712L283 711M1001 711L1002 712L1001 711M101 712L102 713L101 712M285 712L286 713L285 712M569 712L570 713L569 712M100 713L101 714L100 713M287 713L288 714L287 713M1002 713L1003 714L1002 713M289 714L290 715L289 714M568 714L569 715L568 714M1003 714L1004 715L1003 714M99 715L100 716L99 715M567 715L568 716L567 715M292 716L293 717L292 716M1004 716L1005 717L1004 716M98 717L99 718L98 717M294 717L295 718L294 717M566 717L567 718L566 717M296 718L297 719L296 718M565 719L566 720L565 719M1006 719L1007 720L1006 719M96 720L97 721L96 720M299 720L300 721L299 720M301 721L302 722L301 721z"/>
<path style="fill:#ed3725; stroke:none;" d="M1007 721L1008 722L1007 721z"/>
<path style="fill:#ed958b; stroke:none;" d="M95 722L96 723L95 722M303 722L304 723L303 722M563 722L564 723L563 722M1008 722L1009 723L1008 722M306 724L307 725L306 724M562 724L563 725L562 724M1009 724L1010 725L1009 724M93 725L94 726L93 725M308 725L309 726L308 725M310 726L311 727L310 726M92 727L93 728L92 727M312 727L313 728L312 727M560 727L561 728L560 727M1011 727L1012 728L1011 727M313 728L314 729L313 728M315 729L316 730L315 729M559 729L560 730L559 729z"/>
<path style="fill:#ed3725; stroke:none;" d="M1012 729L1013 730L1012 729z"/>
<path style="fill:#ed958b; stroke:none;" d="M90 730L91 731L90 730M317 730L318 731L317 730M1013 730L1014 731L1013 730M319 731L320 732L319 731z"/>
<path style="fill:#ed3725; stroke:none;" d="M558 731L559 732L558 731z"/>
<path style="fill:#ed958b; stroke:none;" d="M89 732L90 733L89 732M320 732L321 733L320 732M557 732L558 733L557 732M1014 732L1015 733L1014 732M322 733L323 734L322 733M1015 733L1016 734L1015 733M88 734L89 735L88 734M324 734L325 735L324 734M556 734L557 735L556 734M87 735L88 736L87 735M326 735L327 736L326 735M1016 735L1017 736L1016 735M327 736L328 737L327 736z"/>
<path style="fill:#ed3725; stroke:none;" d="M555 736L556 737L555 736z"/>
<path style="fill:#ed958b; stroke:none;" d="M86 737L87 738L86 737M329 737L330 738L329 737M554 737L555 738L554 737M331 738L332 739L331 738M1018 738L1019 739L1018 738M85 739L86 740L85 739M333 739L334 740L333 739M553 739L554 740L553 739M84 740L85 741L84 740M1019 740L1020 741L1019 740M336 741L337 742L336 741M552 741L553 742L552 741M1020 741L1021 742L1020 741M83 742L84 743L83 742M447 742L448 743L447 742M551 742L552 743L551 742M1021 743L1022 744L1021 743M82 744L83 745L82 744M550 744L551 745L550 744M549 746L550 747L549 746M1023 746L1024 747L1023 746M80 747L81 748L80 747z"/>
<path style="fill:#ed3725; stroke:none;" d="M1024 748L1025 749L1024 748z"/>
<path style="fill:#ed958b; stroke:none;" d="M79 749L80 750L79 749M547 749L548 750L547 749M1025 749L1026 750L1025 749M546 751L547 752L546 751M1026 751L1026 755L1027 755L1026 751M77 752L78 753L77 752M76 754L77 755L76 754M74 757L75 758L74 757M462 757L463 758L462 757M547 757L548 758L547 757M463 758L464 759L463 758M548 758L549 759L548 758M1025.33 758.667L1025.67 759.333L1025.33 758.667M73 759L74 760L73 759M464 759L465 760L464 759M549 759L550 760L549 759M465 760L466 761L465 760M550 760L551 761L550 760M72 761L73 762L72 761M466 761L467 762L466 761M551 761L552 762L551 761M71 762L72 763L71 762M467 762L468 763L467 762M552 762L553 763L552 762M468 763L469 764L468 763M553 763L554 764L553 763z"/>
<path style="fill:#ed3725; stroke:none;" d="M1024 763L1025 764L1024 763z"/>
<path style="fill:#ed958b; stroke:none;" d="M70 764L71 765L70 764M469 764L470 765L469 764M554 764L555 765L554 764M1024.33 764.667L1024.67 765.333L1024.33 764.667M470 765L471 766L470 765M555 765L556 766L555 765M69 766L70 767L69 766M471 766L472 767L471 766M556 766L557 767L556 766M68 767L69 768L68 767M472 767L473 768L472 767M557 767L558 768L557 767M473 768L474 769L473 768M558 768L559 769L558 768M67 769L68 770L67 769M474 769L475 770L474 769M559 769L560 770L559 769M1023 769L1023 772L1024 772L1023 769M475 770L476 771L475 770M560 770L561 771L560 770M66 771L67 772L66 771M476 771L477 772L476 771M561 771L562 772L561 771M477 772L478 773L477 772M562 772L563 773L562 772M478 773L479 774L478 773M563 773L564 774L563 773M64 774L65 775L64 774M479 774L480 775L479 774M564 774L565 775L564 774z"/>
<path style="fill:#ed3725; stroke:none;" d="M1022 774L1023 775L1022 774z"/>
<path style="fill:#ed958b; stroke:none;" d="M480 775L481 776L480 775M565 775L566 776L565 775M1022.33 775.667L1022.67 776.333L1022.33 775.667M63 776L64 777L63 776M566 776L567 777L566 776M567 777L568 778L567 777M568 778L569 779L568 778M61 779L62 780L61 779M569 779L570 780L569 779M570 780L571 781L570 780M1021 780L1021 783L1022 783L1021 780M60 781L61 782L60 781M571 781L572 782L571 781M572 782L573 783L572 782M573 783L574 784L573 783M58 784L59 785L58 784M574 784L575 785L574 784M575 785L576 786L575 785z"/>
<path style="fill:#ed3725; stroke:none;" d="M1020 785L1021 786L1020 785z"/>
<path style="fill:#ed958b; stroke:none;" d="M57 786L58 787L57 786M576 786L577 787L576 786M1020.33 786.667L1020.67 787.333L1020.33 786.667M577 787L578 788L577 787M56 788L57 789L56 788M578 788L579 789L578 788M55 789L56 790L55 789M579 789L580 790L579 789M494 790L495 791L494 790M580 790L581 791L580 790M54 791L55 792L54 791M495 791L496 792L495 791M581 791L582 792L581 791M1019 791L1019 794L1020 794L1019 791M496 792L497 793L496 792M582 792L583 793L582 792M53 793L54 794L53 793M497 793L498 794L497 793M583 793L584 794L583 793M52 794L53 795L52 794M498 794L499 795L498 794M584 794L585 795L584 794M499 795L500 796L499 795M585 795L586 796L585 795M51 796L52 797L51 796M500 796L501 797L500 796M586 796L587 797L586 796z"/>
<path style="fill:#ed3725; stroke:none;" d="M1018 796L1019 797L1018 796z"/>
<path style="fill:#ed958b; stroke:none;" d="M501 797L502 798L501 797M587 797L588 798L587 797M1018.33 797.667L1018.67 798.333L1018.33 797.667M50 798L51 799L50 798M502 798L503 799L502 798M588 798L589 799L588 798M503 799L504 800L503 799M589 799L590 800L589 799M504 800L505 801L504 800M590 800L591 801L590 800M48 801L49 802L48 801M505 801L506 802L505 801M591 801L592 802L591 801M506 802L507 803L506 802M592 802L593 803L592 802M1017 802L1017 805L1018 805L1017 802M47 803L48 804L47 803M507 803L508 804L507 803M593 803L594 804L593 803M508 804L509 805L508 804M594 804L595 805L594 804M509 805L510 806L509 805M595 805L596 806L595 805M45 806L46 807L45 806M510 806L511 807L510 806M511 807L512 808L511 807z"/>
<path style="fill:#ed3725; stroke:none;" d="M1016 807L1017 808L1016 807z"/>
<path style="fill:#ed958b; stroke:none;" d="M44 808L45 809L44 808M512 808L513 809L512 808z"/>
<path style="fill:#ed3725; stroke:none;" d="M597 808L598 809L597 808z"/>
<path style="fill:#ed958b; stroke:none;" d="M1016.33 808.667L1016.67 809.333L1016.33 808.667M598 810L599 811L598 810M42 811L43 812L42 811M599 812L600 813L599 812M41 813L42 814L41 813M1015 813L1015 816L1016 816L1015 813M600 814L601 815L600 814M40 815L41 816L40 815M39 816L40 817L39 816M519 816L519 820L520 820L519 816M601 816L602 817L601 816z"/>
<path style="fill:#ed3725; stroke:none;" d="M1014 818L1015 819L1014 818z"/>
<path style="fill:#ed958b; stroke:none;" d="M603 819L604 820L603 819M1014.33 819.667L1014.67 820.333L1014.33 819.667M604 821L605 822L604 821M40 822L41 823L40 822M518.333 822.667L518.667 823.333L518.333 822.667M41 823L42 824L41 823M605 823L606 824L605 823M42 824L43 825L42 824M1013 824L1013 827L1014 827L1013 824M43 825L44 826L43 825M606 825L607 826L606 825M44 826L45 827L44 826M517.333 826.667L517.667 827.333L517.333 826.667M45 827L46 828L45 827M607 827L608 828L607 827M46 828L47 829L46 828z"/>
<path style="fill:#ed3725; stroke:none;" d="M608 828L609 829L608 828z"/>
<path style="fill:#ed958b; stroke:none;" d="M47 829L48 830L47 829M48 830L49 831L48 830M516.333 830.667L516.667 831.333L516.333 830.667M609 830L610 831L609 830M1012.33 830.667L1012.67 831.333L1012.33 830.667M49 831L50 832L49 831M50 832L51 833L50 832M610 832L611 833L610 832M51 833L52 834L51 833M52 834L53 835L52 834M515.333 834.667L515.667 835.333L515.333 834.667M611 834L612 835L611 834M53 835L54 836L53 835M1011 835L1011 838L1012 838L1011 835M54 836L55 837L54 836M612 836L613 837L612 836M55 837L56 838L55 837M514.333 837.667L514.667 838.333L514.333 837.667M56 838L57 839L56 838M57 839L58 840L57 839M614 839L615 840L614 839M58 840L59 841L58 840M59 841L60 842L59 841M513.333 841.667L513.667 842.333L513.333 841.667M615 841L616 842L615 841M1010.33 841.667L1010.67 842.333L1010.33 841.667M60 842L61 843L60 842M61 843L62 844L61 843M616 843L617 844L616 843M62 844L63 845L62 844M63 845L64 846L63 845M512.333 845.667L512.667 846.333L512.333 845.667M617 845L618 846L617 845M64 846L65 847L64 846M1009 846L1009 849L1010 849L1009 846M65 847L66 848L65 847M618 847L619 848L618 847M66 848L67 849L66 848z"/>
<path style="fill:#ed3725; stroke:none;" d="M619 848L620 849L619 848z"/>
<path style="fill:#ed958b; stroke:none;" d="M67 849L68 850L67 849M511.333 849.667L511.667 850.333L511.333 849.667M68 850L69 851L68 850M620 850L621 851L620 850M69 851L70 852L69 851M70 852L71 853L70 852M621 852L622 853L621 852M1008.33 852.667L1008.67 853.333L1008.33 852.667M71 853L72 854L71 853M510.333 853.667L510.667 854.333L510.333 853.667M72 854L73 855L72 854M622 854L623 855L622 854M73 855L74 856L73 855M74 856L75 857L74 856M623 856L624 857L623 856M75 857L76 858L75 857M509.333 857.667L509.667 858.333L509.333 857.667M1007 857L1007 860L1008 860L1007 857M76 858L77 859L76 858M77 859L78 860L77 859z"/>
<path style="fill:#ed3725; stroke:none;" d="M625 859L626 860L625 859z"/>
<path style="fill:#ed958b; stroke:none;" d="M78 860L79 861L78 860M79 861L80 862L79 861M508 861L509 862L508 861M626 861L627 862L626 861M80 862L81 863L80 862M81 863L82 864L81 863M627 863L628 864L627 863M1006.33 863.667L1006.67 864.333L1006.33 863.667M82 864L83 865L82 864M507.333 864.667L507.667 865.333L507.333 864.667M83 865L84 866L83 865M628 865L629 866L628 865M84 866L85 867L84 866M85 867L86 868L85 867M629 867L630 868L629 867M86 868L87 869L86 868M506.333 868.667L506.667 869.333L506.333 868.667M1005 868L1005 871L1006 871L1005 868M87 869L88 870L87 869M88 870L89 871L88 870M631 870L632 871L631 870M89 871L90 872L89 871M505.333 872.667L505.667 873.333L505.333 872.667M632 872L633 873L632 872M90 873L91 874L90 873M633 874L634 875L633 874M1004.33 874.667L1004.67 875.333L1004.33 874.667M91 875L92 876L91 875M504.333 876.667L504.667 877.333L504.333 876.667M634 876L635 877L634 876M92 877L93 878L92 877M635 878L636 879L635 878M93 879L94 880L93 879z"/>
<path style="fill:#ed3725; stroke:none;" d="M636 879L637 880L636 879M1003 879L1004 880L1003 879z"/>
<path style="fill:#ed958b; stroke:none;" d="M503.333 880.667L503.667 881.333L503.333 880.667M1003.33 880.667L1003.67 881.333L1003.33 880.667M637 881L638 882L637 881M95 882L96 883L95 882M638 883L639 884L638 883M96 884L97 885L96 884M502.333 884.667L502.667 885.333L502.333 884.667M639 885L640 886L639 885M1002.33 885.667L1002.67 886.333L1002.33 885.667M97 886L98 887L97 886M640 887L641 888L640 887M98 888L99 889L98 888M501 888L502 889L501 888M99 890L100 891L99 890M642 890L643 891L642 890z"/>
<path style="fill:#ed3725; stroke:none;" d="M1001 890L1002 891L1001 890z"/>
<path style="fill:#ed958b; stroke:none;" d="M500.333 891.667L500.667 892.333L500.333 891.667M1001.33 891.667L1001.67 892.333L1001.33 891.667M643 892L644 893L643 892M101 893L102 894L101 893M644 894L645 895L644 894M102 895L103 896L102 895M499.333 895.667L499.667 896.333L499.333 895.667M645 896L646 897L645 896M1000.33 896.667L1000.67 897.333L1000.33 896.667M103 897L104 898L103 897M646 898L647 899L646 898M104 899L105 900L104 899M498.333 899.667L498.667 900.333L498.333 899.667z"/>
<path style="fill:#ed3725; stroke:none;" d="M647 899L648 900L647 899z"/>
<path style="fill:#ed958b; stroke:none;" d="M105 901L106 902L105 901M648 901L649 902L648 901z"/>
<path style="fill:#ed3725; stroke:none;" d="M999 901L1000 902L999 901z"/>
<path style="fill:#ed958b; stroke:none;" d="M106 902L107 903L106 902M999.333 902.667L999.667 903.333L999.333 902.667M497.333 903.667L497.667 904.333L497.333 903.667M649 903L650 904L649 903M107 904L108 905L107 904M650 905L651 906L650 905M108 906L109 907L108 906M496.333 907.667L496.667 908.333L496.333 907.667M651 907L652 908L651 907M998.333 907.667L998.667 908.333L998.333 907.667M109 908L110 909L109 908M110 910L111 911L110 910z"/>
<path style="fill:#ed3725; stroke:none;" d="M653 910L654 911L653 910z"/>
<path style="fill:#ed958b; stroke:none;" d="M495.333 911.667L495.667 912.333L495.333 911.667M654 912L655 913L654 912z"/>
<path style="fill:#ed3725; stroke:none;" d="M997 912L998 913L997 912z"/>
<path style="fill:#ed958b; stroke:none;" d="M112 913L113 914L112 913M997.333 913.667L997.667 914.333L997.333 913.667M655 914L656 915L655 914M113 915L114 916L113 915M494 915L495 916L494 915M656 916L657 917L656 916M114 917L115 918L114 917M493.333 918.667L493.667 919.333L493.333 918.667M657 918L658 919L657 918M996 918L996 921L997 921L996 918M115 919L116 920L115 919M116 921L117 922L116 921M659 921L660 922L659 921M117 922L118 923L117 922M492.333 922.667L492.667 923.333L492.333 922.667z"/>
<path style="fill:#ed3725; stroke:none;" d="M995 923L996 924L995 923z"/>
<path style="fill:#ed958b; stroke:none;" d="M118 924L119 925L118 924M662 924L662 925L665 925L662 924M995.333 924.667L995.667 925.333L995.333 924.667M667.667 925.333L668.333 925.667L667.667 925.333z"/>
<path style="fill:#ed3725; stroke:none;" d="M669 925L670 926L669 925z"/>
<path style="fill:#ed958b; stroke:none;" d="M119 926L120 927L119 926M491.333 926.667L491.667 927.333L491.333 926.667M672.667 926.333L673.333 926.667L672.667 926.333z"/>
<path style="fill:#ed3725; stroke:none;" d="M674 926L675 927L674 926z"/>
<path style="fill:#ed958b; stroke:none;" d="M677.667 927.333L678.333 927.667L677.667 927.333M120 928L121 929L120 928M682.667 928.333L683.333 928.667L682.667 928.333M687.667 929.333L688.333 929.667L687.667 929.333M994 929L994 932L995 932L994 929M121 930L122 931L121 930M490.333 930.667L490.667 931.333L490.333 930.667M692.667 930.333L693.333 930.667L692.667 930.333M696 931L696 932L699 932L696 931M701.667 932.333L702.333 932.667L701.667 932.333z"/>
<path style="fill:#ed3725; stroke:none;" d="M703 932L704 933L703 932z"/>
<path style="fill:#ed958b; stroke:none;" d="M123 933L124 934L123 933M706.667 933.333L707.333 933.667L706.667 933.333z"/>
<path style="fill:#ed3725; stroke:none;" d="M708 933L709 934L708 933z"/>
<path style="fill:#ed958b; stroke:none;" d="M489.333 934.667L489.667 935.333L489.333 934.667M711.667 934.333L712.333 934.667L711.667 934.333z"/>
<path style="fill:#ed3725; stroke:none;" d="M993 934L994 935L993 934z"/>
<path style="fill:#ed958b; stroke:none;" d="M124 935L125 936L124 935M716.667 935.333L717.333 935.667L716.667 935.333M993.333 935.667L993.667 936.333L993.333 935.667M721.667 936.333L722.333 936.667L721.667 936.333M125 937L126 938L125 937M726.667 937.333L727.333 937.667L726.667 937.333M488.333 938.667L488.667 939.333L488.333 938.667M731.667 938.333L732.333 938.667L731.667 938.333M126 939L127 940L126 939M735.667 939.333L736.333 939.667L735.667 939.333z"/>
<path style="fill:#ed3725; stroke:none;" d="M737 939L738 940L737 939z"/>
<path style="fill:#ed958b; stroke:none;" d="M740.667 940.333L741.333 940.667L740.667 940.333z"/>
<path style="fill:#ed3725; stroke:none;" d="M742 940L743 941L742 940z"/>
<path style="fill:#ed958b; stroke:none;" d="M992 940L992 943L993 943L992 940M127 941L128 942L127 941M487.333 941.667L487.667 942.333L487.333 941.667M745.667 941.333L746.333 941.667L745.667 941.333M750.667 942.333L751.333 942.667L750.667 942.333M755.667 943.333L756.333 943.667L755.667 943.333M129 944L130 945L129 944M760.667 944.333L761.333 944.667L760.667 944.333M486.333 945.667L486.667 946.333L486.333 945.667M765.667 945.333L766.333 945.667L765.667 945.333z"/>
<path style="fill:#ed3725; stroke:none;" d="M991 945L992 946L991 945z"/>
<path style="fill:#ed958b; stroke:none;" d="M130 946L131 947L130 946M769 946L769 947L772 947L769 946M991.333 946.667L991.667 947.333L991.333 946.667M774.667 947.333L775.333 947.667L774.667 947.333z"/>
<path style="fill:#ed3725; stroke:none;" d="M776 947L777 948L776 947z"/>
<path style="fill:#ed958b; stroke:none;" d="M131 948L132 949L131 948M779.667 948.333L780.333 948.667L779.667 948.333z"/>
<path style="fill:#ed3725; stroke:none;" d="M781 948L782 949L781 948z"/>
<path style="fill:#ed958b; stroke:none;" d="M485.333 949.667L485.667 950.333L485.333 949.667M784.667 949.333L785.333 949.667L784.667 949.333M132 950L133 951L132 950M789.667 950.333L790.333 950.667L789.667 950.333M794.667 951.333L795.333 951.667L794.667 951.333M990 951L990 954L991 954L990 951M133 952L134 953L133 952M799.667 952.333L800.333 952.667L799.667 952.333M134 953L135 954L134 953M484.333 953.667L484.667 954.333L484.333 953.667M803 953L803 954L806 954L803 953M808.667 954.333L809.333 954.667L808.667 954.333z"/>
<path style="fill:#ed3725; stroke:none;" d="M810 954L811 955L810 954z"/>
<path style="fill:#ed958b; stroke:none;" d="M135 955L136 956L135 955M813.667 955.333L814.333 955.667L813.667 955.333z"/>
<path style="fill:#ed3725; stroke:none;" d="M815 955L816 956L815 955z"/>
<path style="fill:#ed958b; stroke:none;" d="M818.667 956.333L819.333 956.667L818.667 956.333z"/>
<path style="fill:#ed3725; stroke:none;" d="M989 956L990 957L989 956z"/>
<path style="fill:#ed958b; stroke:none;" d="M136 957L137 958L136 957M483.333 957.667L483.667 958.333L483.333 957.667M823.667 957.333L824.333 957.667L823.667 957.333M989.333 957.667L989.667 958.333L989.333 957.667M828.667 958.333L829.333 958.667L828.667 958.333M137 959L138 960L137 959M833.667 959.333L834.333 959.667L833.667 959.333M837 960L837 961L840 961L837 960M138 961L139 962L138 961M482.333 961.667L482.667 962.333L482.333 961.667M842.667 961.333L843.333 961.667L842.667 961.333z"/>
<path style="fill:#ed3725; stroke:none;" d="M844 961L845 962L844 961z"/>
<path style="fill:#ed958b; stroke:none;" d="M847.667 962.333L848.333 962.667L847.667 962.333z"/>
<path style="fill:#ed3725; stroke:none;" d="M849 962L850 963L849 962z"/>
<path style="fill:#ed958b; stroke:none;" d="M988 962L988 965L989 965L988 962M852.667 963.333L853.333 963.667L852.667 963.333M140 964L141 965L140 964M857.667 964.333L858.333 964.667L857.667 964.333M481 965L482 966L481 965M862.667 965.333L863.333 965.667L862.667 965.333M141 966L142 967L141 966M867.667 966.333L868.333 966.667L867.667 966.333M872.667 967.333L873.333 967.667L872.667 967.333M142 968L143 969L142 968M480.333 968.667L480.667 969.333L480.333 968.667M876.667 968.333L877.333 968.667L876.667 968.333z"/>
<path style="fill:#ed3725; stroke:none;" d="M878 968L879 969L878 968z"/>
<path style="fill:#ed958b; stroke:none;" d="M987.333 968.667L987.667 969.333L987.333 968.667M881.667 969.333L882.333 969.667L881.667 969.333z"/>
<path style="fill:#ed3725; stroke:none;" d="M883 969L884 970L883 969z"/>
<path style="fill:#ed958b; stroke:none;" d="M143 970L144 971L143 970M886.667 970.333L887.333 970.667L886.667 970.333M891.667 971.333L892.333 971.667L891.667 971.333M144 972L145 973L144 972M479.333 972.667L479.667 973.333L479.333 972.667M896.667 972.333L897.333 972.667L896.667 972.333M145 973L146 974L145 973M901.667 973.333L902.333 973.667L901.667 973.333M986 973L986 976L987 976L986 973M906.667 974.333L907.333 974.667L906.667 974.333M146 975L147 976L146 975M910.667 975.333L911.333 975.667L910.667 975.333z"/>
<path style="fill:#ed3725; stroke:none;" d="M912 975L913 976L912 975z"/>
<path style="fill:#ed958b; stroke:none;" d="M478.333 976.667L478.667 977.333L478.333 976.667M915.667 976.333L916.333 976.667L915.667 976.333z"/>
<path style="fill:#ed3725; stroke:none;" d="M917 976L918 977L917 976z"/>
<path style="fill:#ed958b; stroke:none;" d="M147 977L148 978L147 977M920.667 977.333L921.333 977.667L920.667 977.333z"/>
<path style="fill:#ed3725; stroke:none;" d="M922 977L923 978L922 977z"/>
<path style="fill:#ed958b; stroke:none;" d="M925.667 978.333L926.333 978.667L925.667 978.333M148 979L149 980L148 979M930.667 979.333L931.333 979.667L930.667 979.333M985.333 979.667L985.667 980.333L985.333 979.667M477.333 980.667L477.667 981.333L477.333 980.667M935.667 980.333L936.333 980.667L935.667 980.333M149 981L150 982L149 981M940.667 981.333L941.333 981.667L940.667 981.333M944 982L944 983L947 983L944 982M949.667 983.333L950.333 983.667L949.667 983.333z"/>
<path style="fill:#ed3725; stroke:none;" d="M951 983L952 984L951 983z"/>
<path style="fill:#ed958b; stroke:none;" d="M151 984L152 985L151 984M476.333 984.667L476.667 985.333L476.333 984.667M954.667 984.333L955.333 984.667L954.667 984.333z"/>
<path style="fill:#ed3725; stroke:none;" d="M956 984L957 985L956 984z"/>
<path style="fill:#ed958b; stroke:none;" d="M984 984L984 987L985 987L984 984M959.667 985.333L960.333 985.667L959.667 985.333M152 986L153 987L152 986M964.667 986.333L965.333 986.667L964.667 986.333M475 987L476 988L475 987M969.667 987.333L970.333 987.667L969.667 987.333M153 988L154 989L153 988M474 988L475 989L474 988M974.667 988.333L975.333 988.667L974.667 988.333M155 989L155 990L473 990L444 989L380 989L155 989M978 989L978 990L982 990L978 989z"/>
</svg>
